Coordinates
version=1
nRows=24
nColumns=24
inDegrees=yes

Units are S.I. units (second, meters, Newtons, ...)
Angles are in degrees.

endheader
time	pelvis_tilt	pelvis_list	pelvis_rotation	pelvis_tx	pelvis_ty	pelvis_tz	hip_flexion_r	hip_adduction_r	hip_rotation_r	knee_angle_r	ankle_angle_r	subtalar_angle_r	mtp_angle_r	hip_flexion_l	hip_adduction_l	hip_rotation_l	knee_angle_l	ankle_angle_l	subtalar_angle_l	mtp_angle_l	lumbar_extension	lumbar_bending	lumbar_rotation
      0.52100000	     -1.68417403	      6.09650544	     -3.14634797	     -0.72618654	      0.97844038	      0.30537771	     26.17565034	     -4.37286972	     -0.94521497	      0.48505617	     -0.50371658	     -4.25839498	      8.18368089	    -19.10198259	     11.14210495	      4.93057603	      3.10859306	      9.74261346	    -10.83991699	     -1.04810501	    -10.79066852	      0.54561501	     -8.42696030
      0.52516667	     -1.73984040	      5.98382498	     -3.20336130	     -0.72046074	      0.97760782	      0.30563956	     26.24119049	     -4.18097279	     -0.74323294	      0.26903782	     -0.71265546	     -4.23519292	      8.18442481	    -19.23115087	     11.03399221	      4.93696253	      2.76306019	      9.87882729	    -10.87057387	     -1.03898833	    -10.73492244	      0.71264921	     -8.41739163
      0.52933333	     -1.83688978	      5.84642347	     -3.23905844	     -0.71468510	      0.97679526	      0.30594724	     26.30234703	     -3.96249848	     -0.42338280	      0.07610071	     -1.11813628	     -4.52848003	      8.20007365	    -19.25155565	     10.89092661	      4.77339762	      2.27139121	     10.16462957	    -10.48900554	     -0.98249408	    -10.62439672	      0.92041179	     -8.43762811
      0.53350000	     -1.90876716	      5.70033117	     -3.29594082	     -0.70887395	      0.97604617	      0.30625186	     26.37056080	     -3.73474342	     -0.14285064	     -0.25227683	     -1.44745848	     -4.65847210	      8.22263565	    -19.29929543	     10.75164544	      4.64718064	      1.78016499	     10.38306684	    -10.31767631	     -0.92419694	    -10.52655973	      1.15685982	     -8.42115097
      0.53766667	     -1.98303432	      5.53843848	     -3.35812465	     -0.70304118	      0.97534141	      0.30659438	     26.44899822	     -3.48597182	      0.15592232	     -0.65549349	     -1.85235863	     -4.87468597	      8.25016827	    -19.32933767	     10.59633599	      4.50973619	      1.26156340	     10.57900798	    -10.13088151	     -0.85275836	    -10.45049501	      1.38933722	     -8.41654377
      0.54183333	     -2.03964440	      5.38843715	     -3.41622876	     -0.69720445	      0.97470542	      0.30696553	     26.52489321	     -3.24834883	      0.46983654	     -1.13715829	     -2.34317056	     -5.24061083	      8.30931267	    -19.34198645	     10.45134786	      4.31155320	      0.67197813	     10.80316277	     -9.79765321	     -0.71176739	    -10.38734988	      1.58767889	     -8.41845275
      0.54600000	     -2.11582874	      5.20811644	     -3.48043066	     -0.69131575	      0.97409047	      0.30735508	     26.61993996	     -2.97615082	      0.78170483	     -1.66890150	     -2.83994644	     -5.56343088	      8.38913851	    -19.32548933	     10.27873048	      4.13148985	      0.05694842	     10.99169854	     -9.57108882	     -0.52908937	    -10.31032861	      1.83512189	     -8.40694634
      0.55016667	     -2.20917904	      5.01719009	     -3.54433709	     -0.68537038	      0.97349175	      0.30774478	     26.74525960	     -2.69179322	      1.06698146	     -2.26717846	     -3.38574091	     -5.89740362	      8.44999832	    -19.29688274	     10.09545467	      4.00055371	     -0.54631268	     11.11246872	     -9.41960513	     -0.37885721	    -10.18431376	      2.10980970	     -8.38439207
      0.55433333	     -2.28006823	      4.82379763	     -3.61345623	     -0.67941715	      0.97296610	      0.30817585	     26.85030676	     -2.40143319	      1.37286302	     -2.90365968	     -3.94888419	     -6.31847246	      8.52654123	    -19.25320455	      9.91184401	      3.81820828	     -1.22897636	     11.24402910	     -9.22678682	     -0.18382345	    -10.09958483	      2.37726599	     -8.36627050
      0.55850000	     -2.31489962	      4.58626635	     -3.68908507	     -0.67340107	      0.97253885	      0.30863206	     26.90736885	     -2.06751916	      1.64991501	     -3.56162813	     -4.51483012	     -6.72604513	      8.77848281	    -19.22432131	      9.68400290	      3.51486636	     -1.96351777	     11.38674353	     -8.87433072	      0.43176847	    -10.07249589	      2.70047920	     -8.33431378
      0.56266667	     -2.44748373	      4.41856163	     -3.75228920	     -0.66742575	      0.97199821	      0.30907403	     27.12650984	     -1.79653548	      1.92561093	     -4.34302259	     -5.05403937	     -7.14487057	      8.83562428	    -19.09068107	      9.52792107	      3.45294302	     -2.69399203	     11.39944482	     -8.91301739	      0.60430165	     -9.91088168	      2.93408302	     -8.31441667
      0.56683333	     -2.52889207	      4.21397560	     -3.82009497	     -0.66140147	      0.97158340	      0.30954569	     27.26980572	     -1.48979961	      2.20376699	     -5.10930079	     -5.62456638	     -7.65610009	      8.91222330	    -18.97781041	      9.33441372	      3.26562815	     -3.49138197	     11.42974258	     -8.77300120	      0.85522960	     -9.81035655	      3.21393829	     -8.29413343
      0.57100000	     -2.57070891	      3.97855346	     -3.89283471	     -0.65535174	      0.97125869	      0.31006289	     27.36044614	     -1.15064104	      2.47567046	     -5.87973156	     -6.14797550	     -8.18510047	      9.07994058	    -18.87213263	      9.10765898	      2.98221713	     -4.37116087	     11.51432194	     -8.51592108	      1.41968420	     -9.78123391	      3.52663428	     -8.27108696
      0.57516667	     -2.69325294	      3.79483277	     -3.96634381	     -0.64928564	      0.97084512	      0.31054931	     27.60072442	     -0.85835611	      2.68563497	     -6.78670591	     -6.59878338	     -8.60282532	      9.14357630	    -18.69667499	      8.93973116	      2.87800203	     -5.19943068	     11.38695228	     -8.54545832	      1.67806673	     -9.62120925	      3.78243190	     -8.22545907
      0.57933333	     -2.75678595	      3.57027754	     -4.04147425	     -0.64318613	      0.97054826	      0.31107534	     27.76476005	     -0.52894504	      2.87283956	     -7.69569088	     -6.94535248	     -9.02441286	     10.06925843	    -18.52680472	      8.72185624	      2.58374458	     -6.14300741	     11.28790497	     -8.33806992	      5.56681123	     -9.55828070	      4.07792592	     -8.13125232
      0.58350000	     -2.83047351	      3.35798396	     -4.12484414	     -0.63707711	      0.97028907	      0.31159779	     27.93546579	     -0.20495600	      3.11224214	     -8.60487364	     -7.27137321	     -9.50965906	     10.06694466	    -18.36705958	      8.53204382	      2.47431522	     -7.04067914	     11.06732865	     -8.47840311	      5.60842014	     -9.47042617	      4.38273877	     -8.14452775
      0.58766667	     -2.90638662	      3.16591167	     -4.17592440	     -0.63098943	      0.97007479	      0.31211176	     28.11316171	      0.08749810	      3.30515923	     -9.52851777	     -7.61055703	    -10.05002532	     10.06401119	    -18.14106282	      8.34546998	      2.30594147	     -8.06518185	     10.89403115	     -8.42079046	      5.74449833	     -9.37458323	      4.63899230	     -8.12205422
      0.59183333	     -2.97245262	      2.96485705	     -4.24523527	     -0.62487386	      0.96990048	      0.31266018	     28.29082455	      0.39716073	      3.49936140	    -10.49641343	     -7.78030851	    -10.52087131	     10.05900930	    -17.90690883	      8.15336173	      2.10717747	     -9.11846919	     10.66126250	     -8.37976463	      5.93331301	     -9.29945684	      4.90990353	     -8.08336474
      0.59600000	     -3.03310642	      2.76528850	     -4.31238473	     -0.61875008	      0.96976589	      0.31321467	     28.46194823	      0.70595484	      3.69124656	    -11.47696980	     -7.86113387	    -10.97840145	     10.04671960	    -17.65254316	      7.96076273	      1.90853014	    -10.21989484	     10.37825155	     -8.34482964	      6.17886615	     -9.22751285	      5.17601507	     -8.04384413
      0.60016667	     -3.08806778	      2.56603550	     -4.37269810	     -0.61262044	      0.96968461	      0.31377381	     28.62408408	      1.01271873	      3.87424190	    -12.46564055	     -7.85943721	    -11.42820950	     10.02305911	    -17.37161055	      7.76195291	      1.69182439	    -11.37615495	     10.04569444	     -8.29020620	      6.52413339	     -9.16281123	      5.44096556	     -8.00502747
      0.60433333	     -3.08157699	      2.33009954	     -4.43044482	     -0.60646502	      0.96972788	      0.31435919	     28.69983889	      1.35311736	      4.04913783	    -13.43932216	     -7.75231952	    -11.89489089	      9.57846206	    -17.14136322	      7.51881731	      1.44651073	    -12.55133635	      9.58311613	     -8.27085565	     11.42370242	     -9.18346799	      5.74286361	     -7.94103147
      0.60850000	     -3.11478137	      2.13000810	     -4.49320201	     -0.60031452	      0.96975506	      0.31492054	     28.83134498	      1.65953130	      4.21475529	    -14.44374477	     -7.52927512	    -12.21926564	      9.56858453	    -16.84331820	      7.31929434	      1.26565607	    -13.76374986	      9.06295109	     -8.31101293	     11.47387803	     -9.15466210	      6.00907878	     -7.92201743
      0.61266667	     -3.15121802	      1.94598042	     -4.53618376	     -0.59419261	      0.96980673	      0.31548754	     28.95960581	      1.94711253	      4.37813705	    -15.43908018	     -7.26021443	    -12.59128152	      9.53944105	    -16.48314749	      7.11739057	      1.03128917	    -15.08437608	      8.55615825	     -8.24936800	     11.61425383	     -9.09791381	      6.25613187	     -7.88747371
      0.61683333	     -3.12374557	      1.71903600	     -4.58461672	     -0.58801497	      0.96999944	      0.31605393	     28.99344326	      2.27384771	      4.52951120	    -16.41091839	     -6.87814352	    -12.94714359	      9.51973207	    -16.19901664	      6.87720206	      0.82585716	    -16.37573390	      7.92669485	     -8.25147745	     11.71737922	     -9.13630262	      6.56276732	     -7.85139532
